# xmcd
#
# Track frame offsets:
#	150
#	13620
#	26488
#	46627
#	63301
#	80551
#	99536
#	113647
#	128769
#	144854
#	160511
#	172444
#	193213
#
# Disc length: 2737 seconds
#
# Revision: 1
# Processed by: cddbd v1.5.2PL0 Copyright (c) Steve Scherf et al.
# Submitted via: audiograbber 1.83.01
#
DISCID=a30aaf0d
DTITLE=Various Artist - Nu Country Traxx 008
DYEAR=1999
DGENRE=Country
TTITLE0=Tracy Lawrence - Lessons Learned
TTITLE1=Doug Stone - Take A Letter, Maria
TTITLE2=Martina Mcbride - Love's The Only House
TTITLE3=Montgomery Gentry - Daddy Won't Sell The Farm
TTITLE4=Lila Mccann - I Will Be
TTITLE5=Alabama - Twentieth Century
TTITLE6=Julie Reeves - What I Need
TTITLE7=Andy Griggs - She's More
TTITLE8=Jennifer Day - The Fun Of Your Love
TTITLE9=Shedaisy - Deck The Halls
TTITLE10=Tracy Byrd - Merry Christmas From Texas Ya'll
TTITLE11=Keeping 6 - Woman Of The World
TTITLE12=Wayne Jessop - The Dotted Line
EXTD=
EXTT0=
EXTT1=
EXTT2=
EXTT3=
EXTT4=
EXTT5=
EXTT6=
EXTT7=
EXTT8=
EXTT9=
EXTT10=
EXTT11=
EXTT12=
PLAYORDER=
